<svg width="223" height="85" viewBox="0 0 223 85" fill="none" xmlns="http://www.w3.org/2000/svg">
<g filter="url(#filter0_d_3_11)">
<path d="M39.5455 28H36.8182C36.5341 26.5227 36.0014 25.0952 35.2202 23.7173C34.4389 22.3253 33.4304 21.0753 32.1946 19.9673C30.973 18.8452 29.5526 17.9574 27.9332 17.304C26.3139 16.6506 24.5241 16.3239 22.5639 16.3239C19.6946 16.3239 17.0526 17.0909 14.6378 18.625C12.2372 20.1449 10.3125 22.3821 8.86364 25.3366C7.42898 28.2912 6.71165 31.9062 6.71165 36.1818C6.71165 40.4858 7.42898 44.1151 8.86364 47.0696C10.3125 50.0241 12.2372 52.2614 14.6378 53.7812C17.0526 55.2869 19.6946 56.0398 22.5639 56.0398C24.5241 56.0398 26.3139 55.7202 27.9332 55.081C29.5526 54.4276 30.973 53.5469 32.1946 52.4389C33.4304 51.3168 34.4389 50.0597 35.2202 48.6676C36.0014 47.2756 36.5341 45.8409 36.8182 44.3636H39.5455C39.233 46.125 38.6293 47.8509 37.7344 49.5412C36.8537 51.2315 35.6889 52.7656 34.2401 54.1435C32.8054 55.5071 31.108 56.5937 29.1477 57.4034C27.2017 58.1989 25.0071 58.5966 22.5639 58.5966C18.9276 58.5966 15.7244 57.6733 12.9545 55.8267C10.1847 53.9659 8.01136 51.3523 6.43466 47.9858C4.87216 44.6193 4.09091 40.6847 4.09091 36.1818C4.09091 31.679 4.87216 27.7443 6.43466 24.3778C8.01136 21.0114 10.1847 18.4048 12.9545 16.5582C15.7244 14.6974 18.9276 13.767 22.5639 13.767C25.0071 13.767 27.2017 14.1719 29.1477 14.9815C31.108 15.777 32.8054 16.8565 34.2401 18.2202C35.6889 19.5696 36.8537 21.0895 37.7344 22.7798C38.6293 24.4702 39.233 26.2102 39.5455 28ZM49.7834 58V14.3636H63.9524C66.5945 14.3636 68.8246 14.8324 70.6428 15.7699C72.4609 16.7074 73.8388 18.0213 74.7763 19.7116C75.728 21.402 76.2038 23.3693 76.2038 25.6136C76.2038 27.375 75.9197 28.9375 75.3516 30.3011C74.7834 31.6648 73.9879 32.794 72.9652 33.6889C71.9567 34.5696 70.7706 35.1804 69.407 35.5213V35.777C70.9126 35.8906 72.3118 36.4162 73.6044 37.3537C74.897 38.277 75.934 39.5341 76.7152 41.125C77.5107 42.7159 77.9084 44.5696 77.9084 46.6861C77.9084 48.9162 77.4254 50.8835 76.4595 52.5881C75.5078 54.2784 74.0803 55.6065 72.1768 56.5724C70.2734 57.5241 67.9155 58 65.103 58H49.7834ZM52.4467 55.5284H65.103C68.3842 55.5284 70.9055 54.7045 72.6669 53.0568C74.4425 51.4091 75.3303 49.2855 75.3303 46.6861C75.3303 44.8537 74.897 43.2131 74.0305 41.7642C73.1783 40.3153 71.9922 39.1719 70.4723 38.3338C68.9524 37.4815 67.1911 37.0554 65.1882 37.0554H52.4467V55.5284ZM52.4467 34.6264H64.8686C66.7294 34.6264 68.3061 34.2216 69.5987 33.4119C70.9055 32.6023 71.8999 31.5156 72.5817 30.152C73.2777 28.7884 73.6257 27.2756 73.6257 25.6136C73.6257 22.9148 72.7876 20.777 71.1115 19.2003C69.4354 17.6236 67.049 16.8352 63.9524 16.8352H52.4467V34.6264ZM105.208 44.3636H108.276L114.625 52.7372L115.222 53.5469L121.657 62.0909H118.588L113.304 55.081L112.75 54.3139L105.208 44.3636ZM123.105 36.1818C123.105 40.6847 122.324 44.6193 120.762 47.9858C119.199 51.3381 117.026 53.9446 114.242 55.8054C111.472 57.6662 108.276 58.5966 104.654 58.5966C101.017 58.5966 97.8072 57.6662 95.0231 55.8054C92.2532 53.9304 90.087 51.3168 88.5245 47.9645C86.962 44.598 86.1808 40.6705 86.1808 36.1818C86.1808 31.679 86.962 27.7514 88.5245 24.3991C90.1012 21.0469 92.2745 18.4403 95.0444 16.5795C97.8143 14.7045 101.017 13.767 104.654 13.767C108.276 13.767 111.472 14.6974 114.242 16.5582C117.026 18.419 119.199 21.0327 120.762 24.3991C122.324 27.7514 123.105 31.679 123.105 36.1818ZM120.506 36.1818C120.506 32.1335 119.824 28.625 118.461 25.6562C117.111 22.6875 115.243 20.3935 112.857 18.7741C110.471 17.1406 107.736 16.3239 104.654 16.3239C101.571 16.3239 98.837 17.1335 96.4506 18.7528C94.0643 20.358 92.1893 22.652 90.8256 25.6349C89.4762 28.6037 88.8015 32.1193 88.8015 36.1818C88.8015 40.2017 89.4691 43.7031 90.8043 46.6861C92.1538 49.6548 94.0217 51.956 96.408 53.5895C98.7944 55.223 101.543 56.0398 104.654 56.0398C107.736 56.0398 110.471 55.2301 112.857 53.6108C115.243 51.9773 117.111 49.6761 118.461 46.7074C119.824 43.7386 120.506 40.2301 120.506 36.1818Z" fill="url(#paint0_linear_3_11)" fill-opacity="0.8" shape-rendering="crispEdges"/>
</g>
<g filter="url(#filter1_d_3_11)">
<path d="M161.001 22.3636C153.805 22.3636 147.951 28.3586 147.951 35.7273C147.951 43.096 153.805 49.0912 161.001 49.0912C168.196 49.0912 174.05 43.096 174.05 35.7273C174.05 28.3586 168.196 22.3636 161.001 22.3636ZM161.001 46.1212C155.394 46.1212 150.85 41.4677 150.85 35.727C150.85 29.9866 155.395 25.3331 161.001 25.3331C166.606 25.3331 171.15 29.9866 171.15 35.727C171.15 41.4677 166.606 46.1212 161.001 46.1212ZM183.62 16.2758H138.381C136.381 16.2758 134.755 17.9412 134.755 19.9879V23.8485H138.525C139.045 23.8485 139.564 24.0513 139.961 24.4576C140.357 24.8626 140.555 25.3954 140.555 25.927V45.527C140.555 46.0588 140.357 46.5916 139.961 46.9967C139.564 47.4023 139.045 47.6058 138.525 47.6058H134.755V51.4664C134.755 53.5128 136.381 55.1788 138.381 55.1788H183.62C185.619 55.1788 187.245 53.5128 187.245 51.4664V19.9876C187.245 17.9412 185.619 16.2758 183.62 16.2758ZM161.001 50.5758C152.992 50.5758 146.5 43.9278 146.5 35.727C146.5 27.5265 152.992 20.8785 161.001 20.8785C169.008 20.8785 175.5 27.5267 175.5 35.727C175.5 43.9278 169.008 50.5758 161.001 50.5758ZM180.983 24.4983C180.007 24.4983 179.216 23.6878 179.216 22.6885C179.216 21.6895 180.007 20.8785 180.983 20.8785C181.958 20.8785 182.75 21.6895 182.75 22.6885C182.75 23.6875 181.959 24.4983 180.983 24.4983ZM183.62 13.4546H180.092V12.1182C180.092 11.8901 180.007 11.6621 179.837 11.488C179.668 11.314 179.444 11.227 179.222 11.227H175.162C174.939 11.227 174.716 11.314 174.546 11.488C174.377 11.662 174.292 11.8901 174.292 12.1182V13.4546H169.772L167.475 9.92596C167.296 9.64978 167.05 9.41368 166.743 9.24589C166.438 9.07869 166.109 9 165.786 9H156.359C156.035 9 155.707 9.07869 155.402 9.24589C155.096 9.41368 154.85 9.64946 154.67 9.92596L152.372 13.4546H147.708V12.1182C147.708 11.8901 147.623 11.6621 147.454 11.488C147.283 11.314 147.062 11.227 146.838 11.227H142.778C142.556 11.227 142.334 11.314 142.163 11.488C141.994 11.662 141.909 11.8901 141.909 12.1182V13.4546H138.381C134.871 13.4546 132 16.3943 132 19.9879V51.4667C132 55.0603 134.871 58 138.381 58H183.62C187.13 58 190 55.0603 190 51.4667V19.9879C190 16.3943 187.13 13.4546 183.62 13.4546ZM187.97 51.4667C187.97 53.9229 186.019 55.9209 183.62 55.9209H138.381C135.982 55.9209 134.03 53.9229 134.03 51.4667V19.9879C134.03 17.532 135.982 15.5336 138.381 15.5336H183.62C186.019 15.5336 187.97 17.532 187.97 19.9879V51.4667H187.97Z" fill="url(#paint1_linear_3_11)" shape-rendering="crispEdges"/>
</g>
<path d="M40.24 80.2C39.1413 80.2 38.1387 80.0187 37.232 79.656C36.3253 79.304 35.5413 78.8027 34.88 78.152C34.2293 77.512 33.7227 76.7493 33.36 75.864C33.008 74.968 32.832 73.992 32.832 72.936C32.832 71.8693 33.008 70.8987 33.36 70.024C33.7227 69.1387 34.2347 68.376 34.896 67.736C35.568 67.0853 36.3627 66.584 37.28 66.232C38.1973 65.88 39.2053 65.704 40.304 65.704C41.392 65.704 42.384 65.8747 43.28 66.216C44.1867 66.5573 44.9707 67.0427 45.632 67.672C46.2933 68.2907 46.8 69.032 47.152 69.896C47.5147 70.76 47.696 71.7147 47.696 72.76C47.696 73.656 47.5893 74.4293 47.376 75.08C47.1733 75.72 46.8747 76.216 46.48 76.568C46.0853 76.9093 45.6107 77.08 45.056 77.08C44.512 77.08 44.0747 76.9147 43.744 76.584C43.4133 76.2533 43.248 75.7893 43.248 75.192V73.928L43.376 72.904L43.216 71.304V68.888H44.256V74.952C44.256 75.4 44.352 75.7147 44.544 75.896C44.736 76.0773 44.9707 76.168 45.248 76.168C45.5787 76.168 45.8667 76.0347 46.112 75.768C46.3573 75.5013 46.544 75.1173 46.672 74.616C46.8107 74.104 46.88 73.4907 46.88 72.776C46.88 71.8373 46.72 70.984 46.4 70.216C46.08 69.448 45.6267 68.7867 45.04 68.232C44.4533 67.6773 43.76 67.256 42.96 66.968C42.16 66.6693 41.2747 66.52 40.304 66.52C39.3333 66.52 38.4427 66.6747 37.632 66.984C36.8213 67.2933 36.1227 67.736 35.536 68.312C34.96 68.8773 34.512 69.5547 34.192 70.344C33.872 71.1227 33.712 71.9867 33.712 72.936C33.712 73.8853 33.8667 74.7547 34.176 75.544C34.496 76.3333 34.944 77.0107 35.52 77.576C36.096 78.152 36.784 78.5947 37.584 78.904C38.384 79.224 39.2693 79.384 40.24 79.384C40.72 79.384 41.232 79.3253 41.776 79.208C42.3307 79.0907 42.8427 78.9147 43.312 78.68L43.584 79.464C43.104 79.7093 42.56 79.8907 41.952 80.008C41.344 80.136 40.7733 80.2 40.24 80.2ZM40.048 77.08C39.2907 77.08 38.6133 76.904 38.016 76.552C37.4187 76.1893 36.944 75.6987 36.592 75.08C36.2507 74.4507 36.08 73.736 36.08 72.936C36.08 72.136 36.2507 71.4267 36.592 70.808C36.944 70.1893 37.4187 69.704 38.016 69.352C38.6133 69 39.2907 68.824 40.048 68.824C40.784 68.824 41.4347 68.9893 42 69.32C42.576 69.6507 43.024 70.1253 43.344 70.744C43.6747 71.352 43.84 72.0827 43.84 72.936C43.84 73.7893 43.6747 74.5253 43.344 75.144C43.024 75.7627 42.5813 76.2427 42.016 76.584C41.4507 76.9147 40.7947 77.08 40.048 77.08ZM40.192 76.152C40.768 76.152 41.2853 76.0187 41.744 75.752C42.2133 75.4853 42.576 75.112 42.832 74.632C43.0987 74.1413 43.232 73.576 43.232 72.936C43.232 72.2853 43.0987 71.7253 42.832 71.256C42.576 70.776 42.2133 70.408 41.744 70.152C41.2853 69.8853 40.768 69.752 40.192 69.752C39.5947 69.752 39.0667 69.8853 38.608 70.152C38.1493 70.408 37.7867 70.776 37.52 71.256C37.264 71.736 37.136 72.296 37.136 72.936C37.136 73.576 37.264 74.136 37.52 74.616C37.7867 75.096 38.1493 75.4747 38.608 75.752C39.0667 76.0187 39.5947 76.152 40.192 76.152ZM55.2193 77.096C54.3766 77.096 53.5979 76.9573 52.8833 76.68C52.1686 76.392 51.5499 75.992 51.0273 75.48C50.5046 74.968 50.0939 74.3653 49.7953 73.672C49.5073 72.9787 49.3633 72.2213 49.3633 71.4C49.3633 70.5787 49.5073 69.8213 49.7953 69.128C50.0939 68.4347 50.5046 67.832 51.0273 67.32C51.5606 66.808 52.1846 66.4133 52.8993 66.136C53.6139 65.848 54.3926 65.704 55.2353 65.704C56.0459 65.704 56.8086 65.8427 57.5233 66.12C58.2379 66.3867 58.8406 66.792 59.3313 67.336L58.5793 68.088C58.1206 67.6187 57.6139 67.2827 57.0593 67.08C56.5046 66.8667 55.9073 66.76 55.2673 66.76C54.5953 66.76 53.9713 66.8773 53.3953 67.112C52.8193 67.336 52.3179 67.6613 51.8913 68.088C51.4646 68.504 51.1286 68.9947 50.8832 69.56C50.6486 70.1147 50.5312 70.728 50.5312 71.4C50.5312 72.072 50.6486 72.6907 50.8832 73.256C51.1286 73.8107 51.4646 74.3013 51.8913 74.728C52.3179 75.144 52.8193 75.4693 53.3953 75.704C53.9713 75.928 54.5953 76.04 55.2673 76.04C55.9073 76.04 56.5046 75.9333 57.0593 75.72C57.6139 75.5067 58.1206 75.1653 58.5793 74.696L59.3313 75.448C58.8406 75.992 58.2379 76.4027 57.5233 76.68C56.8086 76.9573 56.0406 77.096 55.2193 77.096ZM66.7543 77V75.144L66.7063 74.84V71.736C66.7063 71.0213 66.5036 70.472 66.0983 70.088C65.7036 69.704 65.1116 69.512 64.3223 69.512C63.7783 69.512 63.2609 69.6027 62.7703 69.784C62.2796 69.9653 61.8636 70.2053 61.5223 70.504L61.0103 69.656C61.4369 69.2933 61.9489 69.016 62.5463 68.824C63.1436 68.6213 63.7729 68.52 64.4343 68.52C65.5223 68.52 66.3596 68.792 66.9463 69.336C67.5436 69.8693 67.8423 70.6853 67.8423 71.784V77H66.7543ZM63.8583 77.08C63.2289 77.08 62.6796 76.9787 62.2103 76.776C61.7516 76.5627 61.3996 76.2747 61.1543 75.912C60.9089 75.5387 60.7863 75.112 60.7863 74.632C60.7863 74.1947 60.8876 73.8 61.0903 73.448C61.3036 73.0853 61.6449 72.7973 62.1143 72.584C62.5943 72.36 63.2343 72.248 64.0343 72.248H66.9303V73.096H64.0663C63.2556 73.096 62.6903 73.24 62.3703 73.528C62.0609 73.816 61.9062 74.1733 61.9062 74.6C61.9062 75.08 62.0929 75.464 62.4663 75.752C62.8396 76.04 63.3623 76.184 64.0343 76.184C64.6743 76.184 65.2236 76.04 65.6823 75.752C66.1516 75.4533 66.4929 75.0267 66.7063 74.472L66.9623 75.256C66.7489 75.8107 66.3756 76.2533 65.8423 76.584C65.3196 76.9147 64.6583 77.08 63.8583 77.08ZM75.2638 77.08C74.5384 77.08 73.8824 76.9147 73.2958 76.584C72.7091 76.2427 72.2398 75.7573 71.8878 75.128C71.5464 74.488 71.3758 73.7093 71.3758 72.792C71.3758 71.8747 71.5464 71.1013 71.8878 70.472C72.2291 69.832 72.6931 69.3467 73.2798 69.016C73.8664 68.6853 74.5278 68.52 75.2638 68.52C76.0638 68.52 76.7784 68.7013 77.4078 69.064C78.0478 69.416 78.5491 69.9173 78.9118 70.568C79.2744 71.208 79.4558 71.9493 79.4558 72.792C79.4558 73.6453 79.2744 74.392 78.9118 75.032C78.5491 75.672 78.0478 76.1733 77.4078 76.536C76.7784 76.8987 76.0638 77.08 75.2638 77.08ZM70.9278 80.104V68.6H72.0158V71.128L71.9038 72.808L72.0638 74.504V80.104H70.9278ZM75.1838 76.072C75.7811 76.072 76.3144 75.9387 76.7838 75.672C77.2531 75.3947 77.6264 75.0107 77.9038 74.52C78.1811 74.0187 78.3198 73.4427 78.3198 72.792C78.3198 72.1413 78.1811 71.5707 77.9038 71.08C77.6264 70.5893 77.2531 70.2053 76.7838 69.928C76.3144 69.6507 75.7811 69.512 75.1838 69.512C74.5864 69.512 74.0478 69.6507 73.5677 69.928C73.0984 70.2053 72.7251 70.5893 72.4478 71.08C72.1811 71.5707 72.0478 72.1413 72.0478 72.792C72.0478 73.4427 72.1811 74.0187 72.4478 74.52C72.7251 75.0107 73.0984 75.3947 73.5677 75.672C74.0478 75.9387 74.5864 76.072 75.1838 76.072ZM84.4275 77.08C83.6382 77.08 83.0302 76.8667 82.6035 76.44C82.1768 76.0133 81.9635 75.4107 81.9635 74.632V66.744H83.0995V74.568C83.0995 75.0587 83.2222 75.4373 83.4675 75.704C83.7235 75.9707 84.0862 76.104 84.5555 76.104C85.0568 76.104 85.4728 75.96 85.8035 75.672L86.2035 76.488C85.9795 76.6907 85.7075 76.84 85.3875 76.936C85.0782 77.032 84.7582 77.08 84.4275 77.08ZM80.4595 69.544V68.6H85.6595V69.544H80.4595ZM91.7435 77.08C91.0288 77.08 90.4048 76.9467 89.8715 76.68C89.3382 76.4133 88.9222 76.0133 88.6235 75.48C88.3355 74.9467 88.1915 74.28 88.1915 73.48V68.6H89.3275V73.352C89.3275 74.248 89.5462 74.9253 89.9835 75.384C90.4315 75.832 91.0555 76.056 91.8555 76.056C92.4422 76.056 92.9488 75.9387 93.3755 75.704C93.8128 75.4587 94.1435 75.1067 94.3675 74.648C94.6022 74.1893 94.7195 73.64 94.7195 73V68.6H95.8555V77H94.7675V74.696L94.9435 75.112C94.6768 75.7307 94.2608 76.216 93.6955 76.568C93.1408 76.9093 92.4902 77.08 91.7435 77.08ZM99.0215 77V68.6H100.11V70.888L99.9975 70.488C100.232 69.848 100.627 69.3627 101.182 69.032C101.736 68.6907 102.424 68.52 103.246 68.52V69.624C103.203 69.624 103.16 69.624 103.118 69.624C103.075 69.6133 103.032 69.608 102.99 69.608C102.104 69.608 101.411 69.88 100.91 70.424C100.408 70.9573 100.158 71.72 100.158 72.712V77H99.0215ZM108.808 77.08C107.934 77.08 107.166 76.8987 106.504 76.536C105.843 76.1627 105.326 75.656 104.952 75.016C104.579 74.3653 104.392 73.624 104.392 72.792C104.392 71.96 104.568 71.224 104.92 70.584C105.283 69.944 105.774 69.4427 106.392 69.08C107.022 68.7067 107.726 68.52 108.504 68.52C109.294 68.52 109.992 68.7013 110.6 69.064C111.219 69.416 111.704 69.9173 112.056 70.568C112.408 71.208 112.584 71.9493 112.584 72.792C112.584 72.8453 112.579 72.904 112.568 72.968C112.568 73.0213 112.568 73.08 112.568 73.144H105.256V72.296H111.96L111.512 72.632C111.512 72.024 111.379 71.4853 111.112 71.016C110.856 70.536 110.504 70.1627 110.056 69.896C109.608 69.6293 109.091 69.496 108.504 69.496C107.928 69.496 107.411 69.6293 106.952 69.896C106.494 70.1627 106.136 70.536 105.88 71.016C105.624 71.496 105.496 72.0453 105.496 72.664V72.84C105.496 73.48 105.635 74.0453 105.912 74.536C106.2 75.016 106.595 75.3947 107.096 75.672C107.608 75.9387 108.19 76.072 108.84 76.072C109.352 76.072 109.827 75.9813 110.264 75.8C110.712 75.6187 111.096 75.3413 111.416 74.968L112.056 75.704C111.683 76.152 111.214 76.4933 110.648 76.728C110.094 76.9627 109.48 77.08 108.808 77.08ZM118.241 77.08C117.441 77.08 116.721 76.8987 116.081 76.536C115.451 76.1733 114.955 75.672 114.593 75.032C114.23 74.3813 114.049 73.6347 114.049 72.792C114.049 71.9387 114.23 71.192 114.593 70.552C114.955 69.912 115.451 69.416 116.081 69.064C116.721 68.7013 117.441 68.52 118.241 68.52C118.977 68.52 119.633 68.6853 120.209 69.016C120.795 69.3467 121.259 69.832 121.601 70.472C121.953 71.1013 122.128 71.8747 122.128 72.792C122.128 73.6987 121.958 74.472 121.617 75.112C121.275 75.752 120.811 76.2427 120.225 76.584C119.649 76.9147 118.987 77.08 118.241 77.08ZM118.321 76.072C118.918 76.072 119.451 75.9387 119.921 75.672C120.401 75.3947 120.774 75.0107 121.041 74.52C121.318 74.0187 121.457 73.4427 121.457 72.792C121.457 72.1307 121.318 71.5547 121.041 71.064C120.774 70.5733 120.401 70.1947 119.921 69.928C119.451 69.6507 118.918 69.512 118.321 69.512C117.734 69.512 117.206 69.6507 116.737 69.928C116.267 70.1947 115.894 70.5733 115.617 71.064C115.339 71.5547 115.201 72.1307 115.201 72.792C115.201 73.4427 115.339 74.0187 115.617 74.52C115.894 75.0107 116.267 75.3947 116.737 75.672C117.206 75.9387 117.734 76.072 118.321 76.072ZM121.489 77V74.472L121.601 72.776L121.441 71.08V65.128H122.577V77H121.489ZM125.98 77V65.8H130.812C132.06 65.8 133.026 66.0507 133.708 66.552C134.402 67.0533 134.748 67.7627 134.748 68.68C134.748 69.288 134.604 69.8 134.316 70.216C134.039 70.632 133.655 70.9467 133.164 71.16C132.684 71.3733 132.156 71.48 131.58 71.48L131.852 71.096C132.567 71.096 133.18 71.208 133.692 71.432C134.215 71.6453 134.62 71.9707 134.908 72.408C135.196 72.8347 135.34 73.368 135.34 74.008C135.34 74.9573 134.988 75.6933 134.284 76.216C133.591 76.7387 132.54 77 131.132 77H125.98ZM127.164 76.024H131.116C132.098 76.024 132.85 75.8587 133.372 75.528C133.895 75.1867 134.156 74.648 134.156 73.912C134.156 73.1867 133.895 72.6587 133.372 72.328C132.85 71.9867 132.098 71.816 131.116 71.816H127.036V70.84H130.732C131.628 70.84 132.322 70.6693 132.812 70.328C133.314 69.9867 133.564 69.48 133.564 68.808C133.564 68.1253 133.314 67.6187 132.812 67.288C132.322 66.9467 131.628 66.776 130.732 66.776H127.164V76.024ZM137.867 80.184C137.472 80.184 137.093 80.12 136.731 79.992C136.379 79.864 136.075 79.672 135.819 79.416L136.347 78.568C136.56 78.7707 136.789 78.9253 137.035 79.032C137.291 79.1493 137.573 79.208 137.883 79.208C138.256 79.208 138.576 79.1013 138.843 78.888C139.12 78.6853 139.381 78.3227 139.627 77.8L140.171 76.568L140.299 76.392L143.755 68.6H144.875L140.667 78.008C140.432 78.552 140.171 78.984 139.883 79.304C139.605 79.624 139.301 79.848 138.971 79.976C138.64 80.1147 138.272 80.184 137.867 80.184ZM140.107 77.24L136.235 68.6H137.419L140.843 76.312L140.107 77.24ZM151.486 77.096C150.643 77.096 149.859 76.9573 149.134 76.68C148.419 76.392 147.795 75.992 147.262 75.48C146.739 74.9573 146.328 74.3547 146.03 73.672C145.742 72.9787 145.598 72.2213 145.598 71.4C145.598 70.5787 145.742 69.8267 146.03 69.144C146.328 68.4507 146.739 67.848 147.262 67.336C147.795 66.8133 148.419 66.4133 149.134 66.136C149.848 65.848 150.632 65.704 151.486 65.704C152.328 65.704 153.107 65.848 153.822 66.136C154.536 66.4133 155.155 66.808 155.678 67.32C156.211 67.832 156.622 68.4347 156.91 69.128C157.208 69.8213 157.358 70.5787 157.358 71.4C157.358 72.2213 157.208 72.9787 156.91 73.672C156.622 74.3653 156.211 74.968 155.678 75.48C155.155 75.992 154.536 76.392 153.822 76.68C153.107 76.9573 152.328 77.096 151.486 77.096ZM155.15 79.224C154.808 79.224 154.478 79.1813 154.158 79.096C153.838 79.0107 153.512 78.872 153.182 78.68C152.862 78.4987 152.531 78.2587 152.19 77.96C151.848 77.6613 151.475 77.2987 151.07 76.872L152.366 76.552C152.696 76.9467 153.016 77.272 153.326 77.528C153.646 77.784 153.955 77.9707 154.254 78.088C154.563 78.216 154.867 78.28 155.166 78.28C155.998 78.28 156.707 77.9387 157.294 77.256L157.87 77.944C157.166 78.7973 156.259 79.224 155.15 79.224ZM151.486 76.04C152.158 76.04 152.776 75.928 153.342 75.704C153.918 75.4693 154.414 75.1387 154.83 74.712C155.256 74.2853 155.587 73.7947 155.822 73.24C156.056 72.6747 156.174 72.0613 156.174 71.4C156.174 70.728 156.056 70.1147 155.822 69.56C155.587 68.9947 155.256 68.504 154.83 68.088C154.414 67.6613 153.918 67.336 153.342 67.112C152.776 66.8773 152.158 66.76 151.486 66.76C150.814 66.76 150.19 66.8773 149.614 67.112C149.038 67.336 148.536 67.6613 148.11 68.088C147.694 68.504 147.363 68.9947 147.118 69.56C146.883 70.1147 146.766 70.728 146.766 71.4C146.766 72.0613 146.883 72.6747 147.118 73.24C147.363 73.7947 147.694 74.2853 148.11 74.712C148.536 75.1387 149.038 75.4693 149.614 75.704C150.19 75.928 150.814 76.04 151.486 76.04ZM163.244 77.08C162.529 77.08 161.905 76.9467 161.372 76.68C160.838 76.4133 160.422 76.0133 160.124 75.48C159.836 74.9467 159.692 74.28 159.692 73.48V68.6H160.828V73.352C160.828 74.248 161.046 74.9253 161.484 75.384C161.932 75.832 162.556 76.056 163.356 76.056C163.942 76.056 164.449 75.9387 164.876 75.704C165.313 75.4587 165.644 75.1067 165.868 74.648C166.102 74.1893 166.22 73.64 166.22 73V68.6H167.356V77H166.267V74.696L166.444 75.112C166.177 75.7307 165.761 76.216 165.196 76.568C164.641 76.9093 163.99 77.08 163.244 77.08ZM170.522 77V68.6H171.658V77H170.522ZM171.098 66.744C170.863 66.744 170.666 66.664 170.506 66.504C170.346 66.344 170.266 66.152 170.266 65.928C170.266 65.704 170.346 65.5173 170.506 65.368C170.666 65.208 170.863 65.128 171.098 65.128C171.332 65.128 171.53 65.2027 171.69 65.352C171.85 65.5013 171.93 65.688 171.93 65.912C171.93 66.1467 171.85 66.344 171.69 66.504C171.54 66.664 171.343 66.744 171.098 66.744ZM179.106 68.52C179.789 68.52 180.386 68.6533 180.898 68.92C181.421 69.176 181.826 69.5707 182.114 70.104C182.413 70.6373 182.562 71.3093 182.562 72.12V77H181.426V72.232C181.426 71.3467 181.202 70.68 180.754 70.232C180.317 69.7733 179.698 69.544 178.898 69.544C178.301 69.544 177.778 69.6667 177.33 69.912C176.893 70.1467 176.552 70.4933 176.306 70.952C176.072 71.4 175.954 71.944 175.954 72.584V77H174.818V68.6H175.906V70.904L175.73 70.472C175.997 69.864 176.424 69.3893 177.01 69.048C177.597 68.696 178.296 68.52 179.106 68.52ZM189.919 68.52C190.602 68.52 191.199 68.6533 191.711 68.92C192.234 69.176 192.639 69.5707 192.927 70.104C193.226 70.6373 193.375 71.3093 193.375 72.12V77H192.239V72.232C192.239 71.3467 192.015 70.68 191.567 70.232C191.13 69.7733 190.511 69.544 189.711 69.544C189.114 69.544 188.591 69.6667 188.143 69.912C187.706 70.1467 187.364 70.4933 187.119 70.952C186.884 71.4 186.767 71.944 186.767 72.584V77H185.631V68.6H186.719V70.904L186.543 70.472C186.81 69.864 187.236 69.3893 187.823 69.048C188.41 68.696 189.108 68.52 189.919 68.52Z" fill="url(#paint2_linear_3_11)" fill-opacity="0.7"/>
<defs>
<filter id="filter0_d_3_11" x="4.09094" y="12.767" width="129.015" height="58.3239" filterUnits="userSpaceOnUse" color-interpolation-filters="sRGB">
<feFlood flood-opacity="0" result="BackgroundImageFix"/>
<feColorMatrix in="SourceAlpha" type="matrix" values="0 0 0 0 0 0 0 0 0 0 0 0 0 0 0 0 0 0 127 0" result="hardAlpha"/>
<feOffset dx="5" dy="4"/>
<feGaussianBlur stdDeviation="2.5"/>
<feComposite in2="hardAlpha" operator="out"/>
<feColorMatrix type="matrix" values="0 0 0 0 0 0 0 0 0 0 0 0 0 0 0 0 0 0 0.4 0"/>
<feBlend mode="normal" in2="BackgroundImageFix" result="effect1_dropShadow_3_11"/>
<feBlend mode="normal" in="SourceGraphic" in2="effect1_dropShadow_3_11" result="shape"/>
</filter>
<filter id="filter1_d_3_11" x="132" y="4" width="78" height="69" filterUnits="userSpaceOnUse" color-interpolation-filters="sRGB">
<feFlood flood-opacity="0" result="BackgroundImageFix"/>
<feColorMatrix in="SourceAlpha" type="matrix" values="0 0 0 0 0 0 0 0 0 0 0 0 0 0 0 0 0 0 127 0" result="hardAlpha"/>
<feOffset dx="10" dy="5"/>
<feGaussianBlur stdDeviation="5"/>
<feComposite in2="hardAlpha" operator="out"/>
<feColorMatrix type="matrix" values="0 0 0 0 0 0 0 0 0 0 0 0 0 0 0 0 0 0 0.25 0"/>
<feBlend mode="normal" in2="BackgroundImageFix" result="effect1_dropShadow_3_11"/>
<feBlend mode="normal" in="SourceGraphic" in2="effect1_dropShadow_3_11" result="shape"/>
</filter>
<linearGradient id="paint0_linear_3_11" x1="64" y1="0" x2="64" y2="73" gradientUnits="userSpaceOnUse">
<stop/>
<stop offset="1" stop-color="#CD7C6C"/>
</linearGradient>
<linearGradient id="paint1_linear_3_11" x1="161" y1="10.5" x2="161" y2="56.5" gradientUnits="userSpaceOnUse">
<stop stop-opacity="0.74"/>
<stop offset="1" stop-color="#CD7C6C"/>
</linearGradient>
<linearGradient id="paint2_linear_3_11" x1="127.5" y1="61" x2="127.5" y2="85" gradientUnits="userSpaceOnUse">
<stop/>
<stop offset="1" stop-color="#7D4F46"/>
</linearGradient>
</defs>
</svg>
