<svg width="518" height="215" viewBox="0 0 518 215" fill="none" xmlns="http://www.w3.org/2000/svg">
<path d="M18.88 214.16C15.4667 214.16 12.5333 213.507 10.08 212.2C7.62667 210.92 5.74667 209.133 4.44 206.84C3.13333 204.547 2.48 201.907 2.48 198.92C2.48 195.907 3 193.107 4.04 190.52C5.10667 187.933 6.6 185.68 8.52 183.76C10.4667 181.84 12.7867 180.347 15.48 179.28C18.2 178.187 21.2 177.64 24.48 177.64C27.9467 177.64 30.8933 178.253 33.32 179.48C35.7733 180.707 37.64 182.427 38.92 184.64C40.2 186.827 40.84 189.373 40.84 192.28C40.84 194.12 40.6133 195.88 40.16 197.56C39.7067 199.213 39.0533 200.693 38.2 202C37.3733 203.307 36.3733 204.347 35.2 205.12C34.0533 205.867 32.7867 206.24 31.4 206.24C29.5067 206.24 28.1067 205.733 27.2 204.72C26.32 203.68 26.08 202.267 26.48 200.48L26.96 198.4L27.76 196.08L28.28 190.8L29.2 186.16H33.68L30.92 199.84C30.7333 200.747 30.7867 201.427 31.08 201.88C31.3733 202.307 31.88 202.52 32.6 202.52C33.3733 202.52 34.0533 202.213 34.64 201.6C35.2533 200.987 35.7733 200.187 36.2 199.2C36.6267 198.187 36.9467 197.093 37.16 195.92C37.4 194.747 37.52 193.6 37.52 192.48C37.52 190.107 37.0133 188.053 36 186.32C34.9867 184.587 33.48 183.253 31.48 182.32C29.5067 181.387 27.0133 180.92 24 180.92C21.3067 180.92 18.8533 181.373 16.64 182.28C14.4533 183.187 12.5733 184.453 11 186.08C9.45333 187.68 8.25333 189.56 7.4 191.72C6.57333 193.853 6.16 196.16 6.16 198.64C6.16 201.067 6.65333 203.2 7.64 205.04C8.65333 206.853 10.12 208.267 12.04 209.28C13.9867 210.32 16.3467 210.84 19.12 210.84C20.48 210.84 21.8 210.707 23.08 210.44C24.3867 210.2 25.6267 209.813 26.8 209.28L27.52 212.44C26.32 212.973 24.9467 213.387 23.4 213.68C21.88 214 20.3733 214.16 18.88 214.16ZM19.36 206.24C17.7333 206.24 16.28 205.907 15 205.24C13.72 204.547 12.7067 203.56 11.96 202.28C11.2133 200.973 10.84 199.453 10.84 197.72C10.84 196.067 11.1067 194.533 11.64 193.12C12.2 191.707 12.96 190.467 13.92 189.4C14.9067 188.307 16.0667 187.453 17.4 186.84C18.76 186.227 20.2533 185.92 21.88 185.92C24.44 185.92 26.3867 186.64 27.72 188.08C29.08 189.52 29.7733 191.56 29.8 194.2C29.8267 196.387 29.44 198.4 28.64 200.24C27.8667 202.053 26.7067 203.507 25.16 204.6C23.64 205.693 21.7067 206.24 19.36 206.24ZM20.52 202.36C21.88 202.36 23.08 202.027 24.12 201.36C25.16 200.693 25.9733 199.787 26.56 198.64C27.1733 197.493 27.48 196.2 27.48 194.76C27.48 193.16 27 191.933 26.04 191.08C25.1067 190.227 23.8267 189.8 22.2 189.8C20.8933 189.8 19.72 190.12 18.68 190.76C17.6667 191.373 16.8667 192.253 16.28 193.4C15.6933 194.52 15.4 195.84 15.4 197.36C15.4 198.96 15.8533 200.2 16.76 201.08C17.6933 201.933 18.9467 202.36 20.52 202.36ZM58.2072 206.4C55.3539 206.4 52.9139 205.893 50.8872 204.88C48.8605 203.867 47.3005 202.467 46.2072 200.68C45.1405 198.867 44.6072 196.787 44.6072 194.44C44.6072 192.067 45.0072 189.867 45.8072 187.84C46.6339 185.787 47.8072 184 49.3272 182.48C50.8472 180.96 52.6605 179.773 54.7672 178.92C56.8739 178.04 59.2339 177.6 61.8472 177.6C64.2739 177.6 66.4072 178 68.2472 178.8C70.0872 179.6 71.5005 180.76 72.4872 182.28L68.7272 185.44C67.9539 184.373 66.9672 183.56 65.7672 183C64.5672 182.44 63.1405 182.16 61.4872 182.16C59.7005 182.16 58.0872 182.467 56.6472 183.08C55.2072 183.693 53.9805 184.56 52.9672 185.68C51.9539 186.773 51.1805 188.053 50.6472 189.52C50.1139 190.96 49.8472 192.493 49.8472 194.12C49.8472 195.64 50.1805 196.987 50.8472 198.16C51.5139 199.333 52.5005 200.24 53.8072 200.88C55.1139 201.52 56.7139 201.84 58.6072 201.84C60.1805 201.84 61.6339 201.573 62.9672 201.04C64.3272 200.507 65.5272 199.693 66.5672 198.6L69.6072 201.88C68.2472 203.427 66.5805 204.573 64.6072 205.32C62.6605 206.04 60.5272 206.4 58.2072 206.4ZM81.3694 206.28C79.636 206.28 78.0494 205.907 76.6094 205.16C75.196 204.413 74.0627 203.347 73.2094 201.96C72.3827 200.547 71.9694 198.853 71.9694 196.88C71.9694 195.067 72.2627 193.4 72.8494 191.88C73.4627 190.36 74.316 189.04 75.4094 187.92C76.5027 186.8 77.7694 185.933 79.2094 185.32C80.676 184.707 82.276 184.4 84.0094 184.4C85.796 184.4 87.3294 184.72 88.6094 185.36C89.916 186 90.9027 186.973 91.5694 188.28C92.236 189.56 92.5427 191.16 92.4894 193.08C92.436 195.72 91.956 198.04 91.0494 200.04C90.1427 202.013 88.876 203.547 87.2494 204.64C85.6227 205.733 83.6627 206.28 81.3694 206.28ZM82.6494 202C84.0894 202 85.356 201.667 86.4494 201C87.5427 200.307 88.4094 199.36 89.0494 198.16C89.6894 196.96 90.0094 195.573 90.0094 194C90.0094 192.347 89.516 191.04 88.5294 190.08C87.5427 189.12 86.156 188.64 84.3694 188.64C82.956 188.64 81.6894 188.987 80.5694 189.68C79.476 190.347 78.6094 191.28 77.9694 192.48C77.3294 193.68 77.0094 195.067 77.0094 196.64C77.0094 198.293 77.5027 199.6 78.4894 200.56C79.476 201.52 80.8627 202 82.6494 202ZM87.8894 206L88.8494 201.12L90.2094 195.44L90.8894 189.72L91.8894 184.64H96.8894L92.6494 206H87.8894ZM112.111 206.28C110.325 206.28 108.778 205.96 107.471 205.32C106.165 204.653 105.178 203.68 104.511 202.4C103.845 201.093 103.538 199.48 103.591 197.56C103.645 194.893 104.125 192.573 105.031 190.6C105.938 188.627 107.205 187.107 108.831 186.04C110.485 184.947 112.445 184.4 114.711 184.4C116.471 184.4 118.058 184.773 119.471 185.52C120.885 186.24 122.005 187.307 122.831 188.72C123.685 190.107 124.111 191.787 124.111 193.76C124.111 195.573 123.805 197.24 123.191 198.76C122.605 200.28 121.765 201.6 120.671 202.72C119.578 203.84 118.298 204.72 116.831 205.36C115.391 205.973 113.818 206.28 112.111 206.28ZM97.6312 213.76L103.431 184.64H108.191L107.231 189.52L105.911 195.2L105.191 200.92L102.631 213.76H97.6312ZM111.711 202C113.151 202 114.418 201.667 115.511 201C116.605 200.307 117.471 199.36 118.111 198.16C118.751 196.96 119.071 195.573 119.071 194C119.071 192.347 118.578 191.04 117.591 190.08C116.605 189.12 115.218 188.64 113.431 188.64C112.018 188.64 110.751 188.987 109.631 189.68C108.538 190.347 107.671 191.28 107.031 192.48C106.391 193.68 106.071 195.067 106.071 196.64C106.071 198.293 106.565 199.6 107.551 200.56C108.538 201.52 109.925 202 111.711 202ZM134.613 206.28C133.226 206.28 132.026 205.987 131.013 205.4C130.026 204.787 129.306 203.933 128.853 202.84C128.426 201.72 128.36 200.4 128.653 198.88L132.453 179.92H137.453L133.653 198.84C133.493 199.827 133.6 200.627 133.973 201.24C134.346 201.853 135.053 202.16 136.093 202.16C136.573 202.16 137.053 202.093 137.533 201.96C138.04 201.8 138.493 201.587 138.893 201.32L139.773 205C139.026 205.48 138.2 205.813 137.293 206C136.386 206.187 135.493 206.28 134.613 206.28ZM127.213 188.8L128.013 184.8H142.213L141.413 188.8H127.213ZM152.726 206.28C150.94 206.28 149.406 205.907 148.126 205.16C146.873 204.387 145.98 203.28 145.446 201.84C144.913 200.373 144.86 198.587 145.286 196.48L147.646 184.64H152.646L150.286 196.36C149.966 198.093 150.126 199.453 150.766 200.44C151.433 201.4 152.633 201.88 154.366 201.88C156.153 201.88 157.646 201.373 158.846 200.36C160.073 199.347 160.886 197.8 161.286 195.72L163.526 184.64H168.486L164.246 206H159.486L160.686 199.92L161.486 201.84C160.473 203.36 159.193 204.48 157.646 205.2C156.126 205.92 154.486 206.28 152.726 206.28ZM170.793 206L175.033 184.64H179.793L178.593 190.72L178.153 188.96C179.139 187.227 180.393 186.04 181.913 185.4C183.433 184.733 185.286 184.4 187.473 184.4L186.553 189.16C186.339 189.107 186.139 189.08 185.953 189.08C185.766 189.053 185.553 189.04 185.313 189.04C183.366 189.04 181.753 189.56 180.473 190.6C179.193 191.613 178.339 193.24 177.913 195.48L175.793 206H170.793ZM197.919 206.28C195.786 206.28 193.932 205.893 192.359 205.12C190.786 204.32 189.559 203.227 188.679 201.84C187.826 200.427 187.399 198.773 187.399 196.88C187.399 194.453 187.932 192.307 188.999 190.44C190.066 188.573 191.519 187.107 193.359 186.04C195.226 184.947 197.346 184.4 199.719 184.4C201.719 184.4 203.452 184.773 204.919 185.52C206.386 186.267 207.519 187.347 208.319 188.76C209.146 190.147 209.559 191.813 209.559 193.76C209.559 194.267 209.532 194.787 209.479 195.32C209.426 195.853 209.346 196.347 209.239 196.8H191.119L191.679 193.48H206.879L204.839 194.6C205.052 193.24 204.959 192.107 204.559 191.2C204.159 190.293 203.519 189.6 202.639 189.12C201.759 188.64 200.706 188.4 199.479 188.4C198.012 188.4 196.732 188.747 195.639 189.44C194.572 190.107 193.746 191.067 193.159 192.32C192.572 193.547 192.279 194.987 192.279 196.64C192.279 198.373 192.772 199.707 193.759 200.64C194.772 201.573 196.332 202.04 198.439 202.04C199.639 202.04 200.786 201.853 201.879 201.48C202.972 201.08 203.879 200.533 204.599 199.84L206.679 203.32C205.559 204.307 204.226 205.053 202.679 205.56C201.159 206.04 199.572 206.28 197.919 206.28ZM221.605 206.28C219.871 206.28 218.285 205.907 216.845 205.16C215.405 204.413 214.271 203.347 213.445 201.96C212.618 200.547 212.205 198.853 212.205 196.88C212.205 195.067 212.498 193.4 213.085 191.88C213.698 190.36 214.551 189.04 215.645 187.92C216.738 186.8 218.005 185.933 219.445 185.32C220.911 184.707 222.498 184.4 224.205 184.4C225.965 184.4 227.485 184.707 228.765 185.32C230.045 185.933 231.031 186.853 231.725 188.08C232.418 189.307 232.765 190.827 232.765 192.64C232.765 194.64 232.511 196.48 232.005 198.16C231.498 199.813 230.765 201.253 229.805 202.48C228.845 203.68 227.671 204.613 226.285 205.28C224.925 205.947 223.365 206.28 221.605 206.28ZM222.885 202C224.298 202 225.551 201.667 226.645 201C227.765 200.307 228.631 199.36 229.245 198.16C229.885 196.96 230.205 195.573 230.205 194C230.205 192.347 229.711 191.04 228.725 190.08C227.765 189.12 226.378 188.64 224.565 188.64C223.178 188.64 221.925 188.987 220.805 189.68C219.685 190.347 218.805 191.28 218.165 192.48C217.551 193.68 217.245 195.067 217.245 196.64C217.245 198.293 217.725 199.6 218.685 200.56C219.671 201.52 221.071 202 222.885 202ZM228.085 206L229.085 201.12L230.405 195.44L231.085 189.72L233.765 176.32H238.765L232.845 206H228.085ZM239.906 206L245.506 178H258.426C261.359 178 263.612 178.533 265.186 179.6C266.759 180.667 267.546 182.227 267.546 184.28C267.546 186.04 267.092 187.52 266.186 188.72C265.306 189.92 264.159 190.827 262.746 191.44C261.359 192.053 259.866 192.36 258.266 192.36L259.266 191C261.372 191 263.079 191.533 264.386 192.6C265.692 193.64 266.346 195.173 266.346 197.2C266.346 199.147 265.812 200.773 264.746 202.08C263.706 203.387 262.252 204.373 260.386 205.04C258.546 205.68 256.399 206 253.946 206H239.906ZM245.906 201.92H254.306C256.466 201.92 258.146 201.52 259.346 200.72C260.546 199.92 261.146 198.747 261.146 197.2C261.146 195.947 260.706 195.08 259.826 194.6C258.946 194.093 257.706 193.84 256.106 193.84H246.786L247.586 189.8H255.706C256.986 189.8 258.106 189.64 259.066 189.32C260.052 188.973 260.799 188.453 261.306 187.76C261.839 187.04 262.106 186.173 262.106 185.16C262.106 184.093 261.679 183.32 260.826 182.84C259.999 182.333 258.812 182.08 257.266 182.08H249.866L245.906 201.92ZM270.415 214.04C269.349 214.04 268.309 213.867 267.295 213.52C266.255 213.173 265.429 212.72 264.815 212.16L267.295 208.52C267.749 208.92 268.255 209.24 268.815 209.48C269.402 209.747 270.069 209.88 270.815 209.88C271.642 209.88 272.375 209.653 273.015 209.2C273.682 208.773 274.349 208.027 275.015 206.96L276.895 204.04L277.375 203.52L289.135 184.64H294.135L279.415 207.88C278.429 209.427 277.482 210.653 276.575 211.56C275.669 212.467 274.722 213.107 273.735 213.48C272.775 213.853 271.669 214.04 270.415 214.04ZM275.895 206.76L270.655 184.64H275.655L279.855 203.08L275.895 206.76ZM307.265 206.4C304.438 206.4 302.025 205.893 300.025 204.88C298.025 203.867 296.492 202.467 295.425 200.68C294.385 198.867 293.865 196.787 293.865 194.44C293.865 192.067 294.265 189.867 295.065 187.84C295.865 185.787 297.025 184 298.545 182.48C300.065 180.96 301.878 179.773 303.985 178.92C306.092 178.04 308.438 177.6 311.025 177.6C313.825 177.6 316.225 178.107 318.225 179.12C320.225 180.133 321.758 181.547 322.825 183.36C323.892 185.147 324.425 187.213 324.425 189.56C324.425 191.933 324.012 194.147 323.185 196.2C322.385 198.227 321.225 200 319.705 201.52C318.185 203.04 316.372 204.24 314.265 205.12C312.185 205.973 309.852 206.4 307.265 206.4ZM315.225 212.12C312.852 212.12 310.745 211.533 308.905 210.36C307.092 209.213 305.558 207.52 304.305 205.28L310.065 204.08C310.732 205.547 311.492 206.587 312.345 207.2C313.225 207.84 314.252 208.16 315.425 208.16C316.332 208.16 317.212 207.973 318.065 207.6C318.945 207.253 319.718 206.733 320.385 206.04L322.425 209.24C321.572 210.227 320.505 210.947 319.225 211.4C317.972 211.88 316.638 212.12 315.225 212.12ZM307.705 201.84C309.465 201.84 311.052 201.533 312.465 200.92C313.878 200.28 315.078 199.413 316.065 198.32C317.078 197.2 317.852 195.92 318.385 194.48C318.918 193.013 319.185 191.48 319.185 189.88C319.185 188.36 318.852 187.013 318.185 185.84C317.518 184.667 316.545 183.76 315.265 183.12C313.985 182.48 312.412 182.16 310.545 182.16C308.812 182.16 307.225 182.48 305.785 183.12C304.372 183.733 303.158 184.6 302.145 185.72C301.158 186.813 300.398 188.093 299.865 189.56C299.358 191 299.105 192.52 299.105 194.12C299.105 195.64 299.425 196.987 300.065 198.16C300.732 199.333 301.705 200.24 302.985 200.88C304.265 201.52 305.838 201.84 307.705 201.84ZM335.617 206.28C333.83 206.28 332.297 205.907 331.017 205.16C329.764 204.387 328.87 203.28 328.337 201.84C327.804 200.373 327.75 198.587 328.177 196.48L330.537 184.64H335.537L333.177 196.36C332.857 198.093 333.017 199.453 333.657 200.44C334.324 201.4 335.524 201.88 337.257 201.88C339.044 201.88 340.537 201.373 341.737 200.36C342.964 199.347 343.777 197.8 344.177 195.72L346.417 184.64H351.377L347.137 206H342.377L343.577 199.92L344.377 201.84C343.364 203.36 342.084 204.48 340.537 205.2C339.017 205.92 337.377 206.28 335.617 206.28ZM353.683 206L357.923 184.64H362.923L358.683 206H353.683ZM361.563 181.12C360.657 181.12 359.923 180.853 359.363 180.32C358.83 179.76 358.563 179.093 358.563 178.32C358.563 177.413 358.87 176.653 359.483 176.04C360.123 175.427 360.95 175.12 361.963 175.12C362.843 175.12 363.563 175.387 364.123 175.92C364.683 176.427 364.963 177.053 364.963 177.8C364.963 178.787 364.657 179.587 364.043 180.2C363.43 180.813 362.603 181.12 361.563 181.12ZM381.126 184.4C382.966 184.4 384.526 184.773 385.806 185.52C387.086 186.267 387.979 187.373 388.486 188.84C389.019 190.28 389.073 192.053 388.646 194.16L386.286 206H381.286L383.606 194.28C383.953 192.547 383.793 191.2 383.126 190.24C382.459 189.253 381.246 188.76 379.486 188.76C377.646 188.76 376.126 189.267 374.926 190.28C373.726 191.293 372.913 192.84 372.486 194.92L370.246 206H365.246L369.486 184.64H374.246L373.046 190.72L372.246 188.8C373.259 187.28 374.526 186.173 376.046 185.48C377.593 184.76 379.286 184.4 381.126 184.4ZM408.509 184.4C410.349 184.4 411.909 184.773 413.189 185.52C414.469 186.267 415.362 187.373 415.869 188.84C416.402 190.28 416.455 192.053 416.029 194.16L413.669 206H408.669L410.989 194.28C411.335 192.547 411.175 191.2 410.509 190.24C409.842 189.253 408.629 188.76 406.869 188.76C405.029 188.76 403.509 189.267 402.309 190.28C401.109 191.293 400.295 192.84 399.869 194.92L397.629 206H392.629L396.869 184.64H401.629L400.429 190.72L399.629 188.8C400.642 187.28 401.909 186.173 403.429 185.48C404.975 184.76 406.669 184.4 408.509 184.4Z" fill="url(#paint0_linear_0_1)" fill-opacity="0.7"/>
<g filter="url(#filter0_d_0_1)">
<path d="M54.504 125.024C47.6773 125.024 41.3627 123.915 35.56 121.696C29.8427 119.392 24.8507 116.192 20.584 112.096C16.4027 107.915 13.1173 103.051 10.728 97.504C8.33867 91.9573 7.144 85.856 7.144 79.2C7.144 72.544 8.33867 66.4427 10.728 60.896C13.1173 55.3493 16.4453 50.528 20.712 46.432C24.9787 42.2507 29.9707 39.0507 35.688 36.832C41.4907 34.528 47.8053 33.376 54.632 33.376C61.544 33.376 67.9013 34.5707 73.704 36.96C79.592 39.264 84.584 42.72 88.68 47.328L80.36 55.392C76.9467 51.808 73.1067 49.1627 68.84 47.456C64.5733 45.664 60.008 44.768 55.144 44.768C50.1093 44.768 45.416 45.6213 41.064 47.328C36.7973 49.0347 33.0853 51.424 29.928 54.496C26.7707 57.568 24.296 61.2373 22.504 65.504C20.7973 69.6853 19.944 74.2507 19.944 79.2C19.944 84.1493 20.7973 88.7573 22.504 93.024C24.296 97.2053 26.7707 100.832 29.928 103.904C33.0853 106.976 36.7973 109.365 41.064 111.072C45.416 112.779 50.1093 113.632 55.144 113.632C60.008 113.632 64.5733 112.779 68.84 111.072C73.1067 109.28 76.9467 106.549 80.36 102.88L88.68 110.944C84.584 115.552 79.592 119.051 73.704 121.44C67.9013 123.829 61.5013 125.024 54.504 125.024ZM106.94 124V34.4H147.132C157.457 34.4 165.393 36.4907 170.94 40.672C176.487 44.768 179.26 50.4 179.26 57.568C179.26 62.432 178.151 66.528 175.932 69.856C173.799 73.184 170.897 75.744 167.228 77.536C163.559 79.328 159.591 80.224 155.324 80.224L157.628 76.384C162.748 76.384 167.271 77.28 171.196 79.072C175.121 80.864 178.236 83.5093 180.54 87.008C182.844 90.4213 183.996 94.688 183.996 99.808C183.996 107.488 181.095 113.461 175.292 117.728C169.575 121.909 161.041 124 149.692 124H106.94ZM119.74 113.632H149.18C156.263 113.632 161.681 112.437 165.436 110.048C169.191 107.659 171.068 103.904 171.068 98.784C171.068 93.5787 169.191 89.7813 165.436 87.392C161.681 85.0027 156.263 83.808 149.18 83.808H118.588V73.44H145.98C152.465 73.44 157.5 72.2453 161.084 69.856C164.668 67.4667 166.46 63.8827 166.46 59.104C166.46 54.3253 164.668 50.7413 161.084 48.352C157.5 45.9627 152.465 44.768 145.98 44.768H119.74V113.632ZM244.263 125.024C237.436 125.024 231.079 123.872 225.191 121.568C219.388 119.264 214.354 116.064 210.087 111.968C205.82 107.787 202.492 102.923 200.103 97.376C197.714 91.8293 196.519 85.7707 196.519 79.2C196.519 72.6293 197.714 66.5707 200.103 61.024C202.492 55.4773 205.82 50.656 210.087 46.56C214.354 42.3787 219.388 39.136 225.191 36.832C230.994 34.528 237.351 33.376 244.263 33.376C251.09 33.376 257.362 34.528 263.079 36.832C268.882 39.0507 273.916 42.2507 278.183 46.432C282.535 50.528 285.863 55.3493 288.167 60.896C290.556 66.4427 291.751 72.544 291.751 79.2C291.751 85.856 290.556 91.9573 288.167 97.504C285.863 103.051 282.535 107.915 278.183 112.096C273.916 116.192 268.882 119.392 263.079 121.696C257.362 123.915 251.09 125.024 244.263 125.024ZM273.575 142.688C270.588 142.688 267.73 142.304 264.999 141.536C262.268 140.853 259.538 139.701 256.807 138.08C254.076 136.544 251.26 134.496 248.359 131.936C245.458 129.461 242.3 126.389 238.887 122.72L252.583 119.136C255.143 122.293 257.575 124.853 259.879 126.816C262.268 128.864 264.615 130.315 266.919 131.168C269.223 132.107 271.484 132.576 273.703 132.576C280.103 132.576 285.564 130.016 290.087 124.896L296.103 132.192C290.3 139.189 282.791 142.688 273.575 142.688ZM244.263 113.632C249.212 113.632 253.778 112.779 257.959 111.072C262.226 109.365 265.895 106.933 268.967 103.776C272.124 100.619 274.556 96.9493 276.263 92.768C278.055 88.5867 278.951 84.064 278.951 79.2C278.951 74.2507 278.055 69.6853 276.263 65.504C274.556 61.3227 272.124 57.696 268.967 54.624C265.895 51.4667 262.226 49.0347 257.959 47.328C253.778 45.6213 249.212 44.768 244.263 44.768C239.228 44.768 234.578 45.6213 230.311 47.328C226.13 49.0347 222.46 51.4667 219.303 54.624C216.146 57.696 213.671 61.3227 211.879 65.504C210.172 69.6853 209.319 74.2507 209.319 79.2C209.319 84.064 210.172 88.5867 211.879 92.768C213.671 96.9493 216.146 100.619 219.303 103.776C222.46 106.933 226.13 109.365 230.311 111.072C234.578 112.779 239.228 113.632 244.263 113.632Z" fill="url(#paint1_linear_0_1)" fill-opacity="0.8" shape-rendering="crispEdges"/>
</g>
<path d="M1 155.891L321 156.012" stroke="#C7796A" stroke-width="7"/>
<g filter="url(#filter1_d_0_1)">
<path d="M412.503 45.5455C388.308 45.5455 368.627 65.9772 368.627 91.0909C368.627 116.205 388.308 136.637 412.503 136.637C436.695 136.637 456.376 116.205 456.376 91.0909C456.376 65.9772 436.695 45.5455 412.503 45.5455ZM412.503 126.515C393.653 126.515 378.376 110.655 378.376 91.09C378.376 71.5257 393.654 55.6658 412.503 55.6658C431.348 55.6658 446.626 71.5257 446.626 91.09C446.626 110.655 431.348 126.515 412.503 126.515ZM488.55 24.797H336.453C329.729 24.797 324.262 30.473 324.262 37.4485V50.6061H336.937C338.686 50.6061 340.431 51.2974 341.766 52.6819C343.098 54.0625 343.764 55.8782 343.764 57.6899V124.49C343.764 126.303 343.098 128.118 341.766 129.499C340.432 130.881 338.687 131.575 336.937 131.575H324.262V144.732C324.262 151.707 329.728 157.385 336.453 157.385H488.55C495.272 157.385 500.738 151.707 500.738 144.732V37.4475C500.738 30.473 495.272 24.797 488.55 24.797ZM412.503 141.697C385.577 141.697 363.75 119.04 363.75 91.0899C363.75 63.1412 385.577 40.4838 412.503 40.4838C439.425 40.4838 461.25 63.1422 461.25 91.0899C461.25 119.04 439.425 141.697 412.503 141.697ZM479.684 52.8206C476.402 52.8206 473.743 50.0585 473.743 46.6527C473.743 43.248 476.402 40.4839 479.684 40.4839C482.963 40.4839 485.626 43.248 485.626 46.6527C485.626 50.0575 482.964 52.8206 479.684 52.8206ZM488.55 15.1819H476.688V10.6273C476.688 9.84998 476.402 9.0727 475.831 8.47957C475.262 7.88649 474.511 7.58989 473.762 7.58989H460.112C459.363 7.58989 458.615 7.88643 458.043 8.47957C457.476 9.07265 457.188 9.84998 457.188 10.6273V15.1819H441.993L434.268 3.15581C433.668 2.21455 432.841 1.40989 431.81 0.838028C430.784 0.268198 429.678 0 428.591 0H396.898C395.807 0 394.704 0.268198 393.678 0.838028C392.65 1.40989 391.824 2.21347 391.217 3.15581L383.494 15.1819H367.812V10.6273C367.812 9.84998 367.527 9.0727 366.957 8.47957C366.383 7.88649 365.639 7.58989 364.888 7.58989H351.238C350.491 7.58989 349.742 7.88643 349.169 8.47957C348.599 9.07265 348.314 9.84998 348.314 10.6273V15.1819H336.453C324.652 15.1819 315 25.2009 315 37.4485V144.733C315 156.981 324.652 167 336.453 167H488.55C500.35 167 510 156.981 510 144.733V37.4485C510 25.2009 500.35 15.1819 488.55 15.1819ZM503.176 144.733C503.176 153.105 496.615 159.914 488.55 159.914H336.453C328.387 159.914 321.826 153.105 321.826 144.733V37.4485C321.826 29.0783 328.387 22.2677 336.453 22.2677H488.55C496.614 22.2677 503.176 29.0783 503.176 37.4485V144.733H503.176Z" fill="url(#paint2_linear_0_1)" shape-rendering="crispEdges"/>
</g>
<defs>
<filter id="filter0_d_0_1" x="7.14398" y="33.376" width="296.959" height="117.312" filterUnits="userSpaceOnUse" color-interpolation-filters="sRGB">
<feFlood flood-opacity="0" result="BackgroundImageFix"/>
<feColorMatrix in="SourceAlpha" type="matrix" values="0 0 0 0 0 0 0 0 0 0 0 0 0 0 0 0 0 0 127 0" result="hardAlpha"/>
<feOffset dx="4" dy="4"/>
<feGaussianBlur stdDeviation="2"/>
<feComposite in2="hardAlpha" operator="out"/>
<feColorMatrix type="matrix" values="0 0 0 0 0 0 0 0 0 0 0 0 0 0 0 0 0 0 0.25 0"/>
<feBlend mode="normal" in2="BackgroundImageFix" result="effect1_dropShadow_0_1"/>
<feBlend mode="normal" in="SourceGraphic" in2="effect1_dropShadow_0_1" result="shape"/>
</filter>
<filter id="filter1_d_0_1" x="315" y="0" width="203" height="175" filterUnits="userSpaceOnUse" color-interpolation-filters="sRGB">
<feFlood flood-opacity="0" result="BackgroundImageFix"/>
<feColorMatrix in="SourceAlpha" type="matrix" values="0 0 0 0 0 0 0 0 0 0 0 0 0 0 0 0 0 0 127 0" result="hardAlpha"/>
<feOffset dx="4" dy="4"/>
<feGaussianBlur stdDeviation="2"/>
<feComposite in2="hardAlpha" operator="out"/>
<feColorMatrix type="matrix" values="0 0 0 0 0 0 0 0 0 0 0 0 0 0 0 0 0 0 0.25 0"/>
<feBlend mode="normal" in2="BackgroundImageFix" result="effect1_dropShadow_0_1"/>
<feBlend mode="normal" in="SourceGraphic" in2="effect1_dropShadow_0_1" result="shape"/>
</filter>
<linearGradient id="paint0_linear_0_1" x1="210" y1="216" x2="210" y2="167" gradientUnits="userSpaceOnUse">
<stop offset="0.176501" stop-color="#6E6C6C"/>
<stop offset="1" stop-color="#CD7C6C"/>
</linearGradient>
<linearGradient id="paint1_linear_0_1" x1="149.5" y1="0" x2="149.5" y2="156" gradientUnits="userSpaceOnUse">
<stop stop-color="#6E6C6C"/>
<stop offset="1" stop-color="#CD7C6C"/>
</linearGradient>
<linearGradient id="paint2_linear_0_1" x1="412.5" y1="5.11224" x2="412.5" y2="161.888" gradientUnits="userSpaceOnUse">
<stop stop-color="#383838" stop-opacity="0.74"/>
<stop offset="1" stop-color="#CD7C6C"/>
</linearGradient>
</defs>
</svg>
